<svg width="16" height="17" viewBox="0 0 16 17" fill="none" xmlns="http://www.w3.org/2000/svg">
<path d="M11.5 4C12.1198 4 12.7031 4.11719 13.25 4.35156C13.7969 4.58594 14.2734 4.90885 14.6797 5.32031C15.0859 5.73177 15.4062 6.20833 15.6406 6.75C15.875 7.29167 15.9948 7.875 16 8.5C16 9.11979 15.8828 9.70312 15.6484 10.25C15.4141 10.7969 15.0911 11.2734 14.6797 11.6797C14.2682 12.0859 13.7917 12.4062 13.25 12.6406C12.7083 12.875 12.125 12.9948 11.5 13C11.0312 13 10.5755 12.9297 10.1328 12.7891C9.6901 12.6484 9.27604 12.4427 8.89062 12.1719L5.28125 15.7812C5.13542 15.9271 4.95833 16 4.75 16C4.54167 16 4.36458 15.9271 4.21875 15.7812C4.07292 15.6354 4 15.4583 4 15.25C4 15.0417 4.07292 14.8646 4.21875 14.7188L7.82812 11.1094C7.5625 10.7292 7.35938 10.3177 7.21875 9.875C7.07812 9.43229 7.00521 8.97396 7 8.5C7 7.88021 7.11719 7.29688 7.35156 6.75C7.58594 6.20312 7.90885 5.72656 8.32031 5.32031C8.73177 4.91406 9.20833 4.59375 9.75 4.35938C10.2917 4.125 10.875 4.00521 11.5 4ZM9.75 11.5312C9.95312 11.651 10.1667 11.7474 10.3906 11.8203C10.6146 11.8932 10.8438 11.9453 11.0781 11.9766C11.1927 11.8359 11.25 11.6771 11.25 11.5C11.25 11.2917 11.1771 11.1146 11.0312 10.9688C10.8854 10.8229 10.7083 10.75 10.5 10.75C10.2917 10.75 10.1146 10.8229 9.96875 10.9688C9.82292 11.1146 9.75 11.2917 9.75 11.5V11.5312ZM14 10.9453C14.3229 10.6172 14.5703 10.2422 14.7422 9.82031C14.9141 9.39844 15 8.95833 15 8.5C15 8.01562 14.9089 7.5625 14.7266 7.14062C14.5443 6.71875 14.2943 6.34896 13.9766 6.03125C13.6589 5.71354 13.2891 5.46354 12.8672 5.28125C12.4453 5.09896 11.9896 5.00521 11.5 5C11.0417 5 10.6016 5.08594 10.1797 5.25781C9.75781 5.42969 9.38281 5.67708 9.05469 6H10V9H9V6.05469C8.67708 6.38281 8.42969 6.75781 8.25781 7.17969C8.08594 7.60156 8 8.04167 8 8.5C8 8.94792 8.08333 9.38021 8.25 9.79688C8.41667 10.2135 8.65625 10.5859 8.96875 10.9141C8.98958 10.9349 9.00781 10.9505 9.02344 10.9609C9.03906 10.9714 9.05729 10.9922 9.07812 11.0234C9.18229 10.7161 9.36458 10.4688 9.625 10.2812C9.88542 10.0938 10.1771 10 10.5 10C10.7083 10 10.9036 10.0391 11.0859 10.1172C11.2682 10.1953 11.4271 10.3021 11.5625 10.4375C11.6979 10.5729 11.8047 10.7318 11.8828 10.9141C11.9609 11.0964 12 11.2917 12 11.5C12 11.6667 11.974 11.8255 11.9219 11.9766C12.1094 11.9505 12.2917 11.9115 12.4688 11.8594C12.6458 11.8073 12.8229 11.7422 13 11.6641V10H14V10.9453ZM4.17969 13H0.5C0.359375 13 0.242188 12.9531 0.148438 12.8594C0.0546875 12.7656 0.00520833 12.6458 0 12.5V1.5C0 1.35938 0.046875 1.24219 0.140625 1.14844C0.234375 1.05469 0.354167 1.00521 0.5 1H14.5C14.6406 1 14.7578 1.04688 14.8516 1.14062C14.9453 1.23438 14.9948 1.35417 15 1.5V3.95312C14.849 3.83333 14.6901 3.72135 14.5234 3.61719C14.3568 3.51302 14.1823 3.41667 14 3.32812V3H1V12H5.17188L4.17969 13ZM12.5 6C12.7083 6 12.9036 6.03906 13.0859 6.11719C13.2682 6.19531 13.4271 6.30208 13.5625 6.4375C13.6979 6.57292 13.8047 6.73177 13.8828 6.91406C13.9609 7.09635 14 7.29167 14 7.5C14 7.70833 13.9609 7.90365 13.8828 8.08594C13.8047 8.26823 13.6979 8.42708 13.5625 8.5625C13.4271 8.69792 13.2682 8.80469 13.0859 8.88281C12.9036 8.96094 12.7083 9 12.5 9C12.2917 9 12.0964 8.96094 11.9141 8.88281C11.7318 8.80469 11.5729 8.69792 11.4375 8.5625C11.3021 8.42708 11.1953 8.26823 11.1172 8.08594C11.0391 7.90365 11 7.70833 11 7.5C11 7.29167 11.0391 7.09635 11.1172 6.91406C11.1953 6.73177 11.3021 6.57292 11.4375 6.4375C11.5729 6.30208 11.7318 6.19531 11.9141 6.11719C12.0964 6.03906 12.2917 6 12.5 6ZM12.5 8.25C12.7083 8.25 12.8854 8.17708 13.0312 8.03125C13.1771 7.88542 13.25 7.70833 13.25 7.5C13.25 7.29167 13.1771 7.11458 13.0312 6.96875C12.8854 6.82292 12.7083 6.75 12.5 6.75C12.2917 6.75 12.1146 6.82292 11.9688 6.96875C11.8229 7.11458 11.75 7.29167 11.75 7.5C11.75 7.70833 11.8229 7.88542 11.9688 8.03125C12.1146 8.17708 12.2917 8.25 12.5 8.25ZM6.96094 5C6.84115 5.15104 6.72917 5.3099 6.625 5.47656C6.52083 5.64323 6.42708 5.81771 6.34375 6H2V5H6.96094ZM5.96094 7C5.85677 7.32812 5.79688 7.66146 5.78125 8H2V7H5.96094ZM5.78125 9C5.79688 9.33854 5.85677 9.67188 5.96094 10H2V9H5.78125Z" fill="#3A3A38"/>
</svg>
